<svg width="70" height="25" viewBox="0 0 70 25" fill="none" xmlns="http://www.w3.org/2000/svg">
<path d="M15.52 18.24C14.3867 18.24 13.4467 18.0533 12.7 17.68C11.9533 17.2933 11.3267 16.7667 10.82 16.1L11.84 15C12.28 15.56 12.7933 15.9933 13.38 16.3C13.98 16.6067 14.6933 16.76 15.52 16.76C15.9733 16.76 16.3867 16.6867 16.76 16.54C17.1467 16.3933 17.4733 16.1933 17.74 15.94C18.0067 15.6867 18.2133 15.3867 18.36 15.04C18.52 14.68 18.6 14.3 18.6 13.9C18.6 13.46 18.52 13.0667 18.36 12.72C18.2133 12.36 18.0067 12.0533 17.74 11.8C17.4733 11.5467 17.1533 11.3533 16.78 11.22C16.4067 11.0867 15.9933 11.02 15.54 11.02C14.94 11.02 14.3867 11.12 13.88 11.32C13.3867 11.52 12.9133 11.84 12.46 12.28L11.24 11.86V4.66H19.4V6.14H12.9V10.78C13.22 10.46 13.6467 10.18 14.18 9.94C14.7267 9.7 15.34 9.58 16.02 9.58C16.58 9.58 17.1133 9.67333 17.62 9.86C18.1267 10.0467 18.5733 10.32 18.96 10.68C19.36 11.04 19.6733 11.4867 19.9 12.02C20.14 12.5533 20.26 13.16 20.26 13.84C20.26 14.52 20.14 15.1333 19.9 15.68C19.66 16.2267 19.3267 16.6933 18.9 17.08C18.4733 17.4533 17.9667 17.74 17.38 17.94C16.8067 18.14 16.1867 18.24 15.52 18.24ZM27.4169 18.24C26.4969 18.24 25.7169 18.0333 25.0769 17.62C24.4369 17.2067 23.9102 16.6733 23.4969 16.02C23.0835 15.3533 22.7835 14.6133 22.5969 13.8C22.4102 12.9733 22.3169 12.1533 22.3169 11.34C22.3169 10.5267 22.4102 9.71333 22.5969 8.9C22.7835 8.07333 23.0835 7.33333 23.4969 6.68C23.9102 6.02667 24.4369 5.49333 25.0769 5.08C25.7169 4.66667 26.4969 4.46 27.4169 4.46C28.3235 4.46 29.0969 4.66667 29.7369 5.08C30.3902 5.49333 30.9169 6.02667 31.3169 6.68C31.7302 7.33333 32.0302 8.07333 32.2169 8.9C32.4169 9.71333 32.5169 10.5267 32.5169 11.34C32.5169 12.1533 32.4169 12.9733 32.2169 13.8C32.0302 14.6133 31.7302 15.3533 31.3169 16.02C30.9169 16.6733 30.3902 17.2067 29.7369 17.62C29.0969 18.0333 28.3235 18.24 27.4169 18.24ZM27.4169 16.76C28.0569 16.76 28.5902 16.6067 29.0169 16.3C29.4569 15.98 29.8102 15.5667 30.0769 15.06C30.3435 14.54 30.5302 13.96 30.6369 13.32C30.7569 12.6667 30.8169 12.0067 30.8169 11.34C30.8169 10.6733 30.7569 10.02 30.6369 9.38C30.5302 8.72667 30.3435 8.14667 30.0769 7.64C29.8102 7.13333 29.4569 6.72667 29.0169 6.42C28.5902 6.1 28.0569 5.94 27.4169 5.94C26.7769 5.94 26.2369 6.1 25.7969 6.42C25.3702 6.72667 25.0235 7.13333 24.7569 7.64C24.4902 8.14667 24.2969 8.72667 24.1769 9.38C24.0702 10.02 24.0169 10.6733 24.0169 11.34C24.0169 12.0067 24.0702 12.6667 24.1769 13.32C24.2969 13.96 24.4902 14.54 24.7569 15.06C25.0235 15.5667 25.3702 15.98 25.7969 16.3C26.2369 16.6067 26.7769 16.76 27.4169 16.76ZM39.663 18.24C38.743 18.24 37.963 18.0333 37.323 17.62C36.683 17.2067 36.1563 16.6733 35.743 16.02C35.3296 15.3533 35.0296 14.6133 34.843 13.8C34.6563 12.9733 34.563 12.1533 34.563 11.34C34.563 10.5267 34.6563 9.71333 34.843 8.9C35.0296 8.07333 35.3296 7.33333 35.743 6.68C36.1563 6.02667 36.683 5.49333 37.323 5.08C37.963 4.66667 38.743 4.46 39.663 4.46C40.5696 4.46 41.343 4.66667 41.983 5.08C42.6363 5.49333 43.163 6.02667 43.563 6.68C43.9763 7.33333 44.2763 8.07333 44.463 8.9C44.663 9.71333 44.763 10.5267 44.763 11.34C44.763 12.1533 44.663 12.9733 44.463 13.8C44.2763 14.6133 43.9763 15.3533 43.563 16.02C43.163 16.6733 42.6363 17.2067 41.983 17.62C41.343 18.0333 40.5696 18.24 39.663 18.24ZM39.663 16.76C40.303 16.76 40.8363 16.6067 41.263 16.3C41.703 15.98 42.0563 15.5667 42.323 15.06C42.5896 14.54 42.7763 13.96 42.883 13.32C43.003 12.6667 43.063 12.0067 43.063 11.34C43.063 10.6733 43.003 10.02 42.883 9.38C42.7763 8.72667 42.5896 8.14667 42.323 7.64C42.0563 7.13333 41.703 6.72667 41.263 6.42C40.8363 6.1 40.303 5.94 39.663 5.94C39.023 5.94 38.483 6.1 38.043 6.42C37.6163 6.72667 37.2696 7.13333 37.003 7.64C36.7363 8.14667 36.543 8.72667 36.423 9.38C36.3163 10.02 36.263 10.6733 36.263 11.34C36.263 12.0067 36.3163 12.6667 36.423 13.32C36.543 13.96 36.7363 14.54 37.003 15.06C37.2696 15.5667 37.6163 15.98 38.043 16.3C38.483 16.6067 39.023 16.76 39.663 16.76Z" fill="#A8A8A8"/>
<mask id="path-2-inside-1" fill="white">
<path fill-rule="evenodd" clip-rule="evenodd" d="M53.8332 13.0212H55.1387H55.1389C55.6666 13.0212 56.1943 13.0212 56.7498 12.9676C58.8053 12.8606 60.4441 11.1742 60.4997 9.11307C60.5275 6.99841 58.9164 5.15142 56.8609 5.04435C55.5554 4.99082 54.2777 4.99081 52.9166 5.01758C52.3055 5.04435 51.6944 5.04435 51.0555 5.04435H50.7778V10.4515V11.2009H49.5V12.9944H50.7778V13.7172H49.5278V15.5106H50.7778V18H52.7777V15.5106H55.8609V13.7172H52.7777V13.0212H53.8332ZM52.7777 11.2009H53.2499V11.2277H53.6388H54.111H54.2221C55.3887 11.2545 56.1943 11.2277 56.6665 11.201C57.7776 11.0939 58.6664 10.1302 58.6386 9.00599C58.6386 7.82821 57.6942 6.86457 56.4998 6.81103C55.8357 6.77103 55.1715 6.77586 54.4842 6.78086H54.4842H54.4842H54.4842H54.4842H54.4842H54.4842C54.2516 6.78255 54.0164 6.78426 53.7777 6.78426H52.7777V10.4515V11.2009Z"/>
</mask>
<path fill-rule="evenodd" clip-rule="evenodd" d="M53.8332 13.0212H55.1387H55.1389C55.6666 13.0212 56.1943 13.0212 56.7498 12.9676C58.8053 12.8606 60.4441 11.1742 60.4997 9.11307C60.5275 6.99841 58.9164 5.15142 56.8609 5.04435C55.5554 4.99082 54.2777 4.99081 52.9166 5.01758C52.3055 5.04435 51.6944 5.04435 51.0555 5.04435H50.7778V10.4515V11.2009H49.5V12.9944H50.7778V13.7172H49.5278V15.5106H50.7778V18H52.7777V15.5106H55.8609V13.7172H52.7777V13.0212H53.8332ZM52.7777 11.2009H53.2499V11.2277H53.6388H54.111H54.2221C55.3887 11.2545 56.1943 11.2277 56.6665 11.201C57.7776 11.0939 58.6664 10.1302 58.6386 9.00599C58.6386 7.82821 57.6942 6.86457 56.4998 6.81103C55.8357 6.77103 55.1715 6.77586 54.4842 6.78086H54.4842H54.4842H54.4842H54.4842H54.4842H54.4842C54.2516 6.78255 54.0164 6.78426 53.7777 6.78426H52.7777V10.4515V11.2009Z" fill="#A8A8A8"/>
<path d="M56.7498 12.9676L56.7368 12.7177L56.7258 12.7188L56.7498 12.9676ZM60.4997 9.11307L60.7496 9.11981L60.7497 9.11636L60.4997 9.11307ZM56.8609 5.04435L56.8739 4.79467L56.8712 4.79456L56.8609 5.04435ZM52.9166 5.01758L52.9117 4.76756L52.9057 4.76782L52.9166 5.01758ZM50.7778 5.04435V4.79435H50.5278V5.04435H50.7778ZM50.7778 11.2009V11.4509H51.0278V11.2009H50.7778ZM49.5 11.2009V10.9509H49.25V11.2009H49.5ZM49.5 12.9944H49.25V13.2444H49.5V12.9944ZM50.7778 12.9944H51.0278V12.7444H50.7778V12.9944ZM50.7778 13.7172V13.9672H51.0278V13.7172H50.7778ZM49.5278 13.7172V13.4672H49.2778V13.7172H49.5278ZM49.5278 15.5106H49.2778V15.7606H49.5278V15.5106ZM50.7778 15.5106H51.0278V15.2606H50.7778V15.5106ZM50.7778 18H50.5278V18.25H50.7778V18ZM52.7777 18V18.25H53.0277V18H52.7777ZM52.7777 15.5106V15.2606H52.5277V15.5106H52.7777ZM55.8609 15.5106V15.7606H56.1109V15.5106H55.8609ZM55.8609 13.7172H56.1109V13.4672H55.8609V13.7172ZM52.7777 13.7172H52.5277V13.9672H52.7777V13.7172ZM52.7777 13.0212V12.7712H52.5277V13.0212H52.7777ZM53.2499 11.2009H53.4999V10.9509H53.2499V11.2009ZM52.7777 11.2009H52.5277V11.4509H52.7777V11.2009ZM53.2499 11.2277H52.9999V11.4777H53.2499V11.2277ZM54.2221 11.2277L54.2278 10.9777H54.2221V11.2277ZM56.6665 11.201L56.6806 11.4508L56.6905 11.4498L56.6665 11.201ZM58.6386 9.00599H58.3886L58.3887 9.01217L58.6386 9.00599ZM56.4998 6.81103L56.4848 7.06061L56.4886 7.06078L56.4998 6.81103ZM54.4842 6.78086V7.03087L54.486 7.03085L54.4842 6.78086ZM54.4842 6.78086V6.53085L54.4824 6.53087L54.4842 6.78086ZM52.7777 6.78426V6.53426H52.5277V6.78426H52.7777ZM55.1387 12.7712H53.8332V13.2712H55.1387V12.7712ZM55.1389 12.7712H55.1387V13.2712H55.1389V12.7712ZM56.7258 12.7188C56.1841 12.771 55.6681 12.7712 55.1389 12.7712V13.2712C55.6651 13.2712 56.2045 13.2714 56.7738 13.2165L56.7258 12.7188ZM60.2498 9.10634C60.1977 11.0377 58.6614 12.6177 56.7368 12.718L56.7628 13.2173C58.9492 13.1034 60.6905 11.3107 60.7496 9.11981L60.2498 9.10634ZM56.8479 5.29401C58.757 5.39346 60.2759 7.11675 60.2497 9.10979L60.7497 9.11636C60.779 6.88007 59.0758 4.90939 56.8739 4.79469L56.8479 5.29401ZM52.9215 5.26753C54.2795 5.24083 55.5519 5.24088 56.8507 5.29414L56.8712 4.79456C55.5589 4.74075 54.2758 4.7408 52.9117 4.76763L52.9215 5.26753ZM51.0555 5.29435C51.6934 5.29435 52.31 5.29439 52.9275 5.26734L52.9057 4.76782C52.301 4.79431 51.6954 4.79435 51.0555 4.79435V5.29435ZM50.7778 5.29435H51.0555V4.79435H50.7778V5.29435ZM51.0278 10.4515V5.04435H50.5278V10.4515H51.0278ZM51.0278 11.2009V10.4515H50.5278V11.2009H51.0278ZM49.5 11.4509H50.7778V10.9509H49.5V11.4509ZM49.75 12.9944V11.2009H49.25V12.9944H49.75ZM50.7778 12.7444H49.5V13.2444H50.7778V12.7444ZM51.0278 13.7172V12.9944H50.5278V13.7172H51.0278ZM49.5278 13.9672H50.7778V13.4672H49.5278V13.9672ZM49.7778 15.5106V13.7172H49.2778V15.5106H49.7778ZM50.7778 15.2606H49.5278V15.7606H50.7778V15.2606ZM51.0278 18V15.5106H50.5278V18H51.0278ZM52.7777 17.75H50.7778V18.25H52.7777V17.75ZM52.5277 15.5106V18H53.0277V15.5106H52.5277ZM55.8609 15.2606H52.7777V15.7606H55.8609V15.2606ZM55.6109 13.7172V15.5106H56.1109V13.7172H55.6109ZM52.7777 13.9672H55.8609V13.4672H52.7777V13.9672ZM52.5277 13.0212V13.7172H53.0277V13.0212H52.5277ZM53.8332 12.7712H52.7777V13.2712H53.8332V12.7712ZM53.2499 10.9509H52.7777V11.4509H53.2499V10.9509ZM53.4999 11.2277V11.2009H52.9999V11.2277H53.4999ZM53.6388 10.9777H53.2499V11.4777H53.6388V10.9777ZM54.111 10.9777H53.6388V11.4777H54.111V10.9777ZM54.2221 10.9777H54.111V11.4777H54.2221V10.9777ZM56.6523 10.9514C56.1869 10.9777 55.388 11.0044 54.2278 10.9778L54.2164 11.4777C55.3895 11.5046 56.2017 11.4777 56.6806 11.4506L56.6523 10.9514ZM58.3887 9.01217C58.4131 10.0003 57.628 10.8571 56.6425 10.9521L56.6905 11.4498C57.9271 11.3306 58.9197 10.2602 58.8886 8.99982L58.3887 9.01217ZM56.4886 7.06078C57.5542 7.10854 58.3886 7.96666 58.3886 9.00599H58.8886C58.8886 7.68975 57.8342 6.62059 56.511 6.56128L56.4886 7.06078ZM54.486 7.03085C55.1748 7.02584 55.8305 7.02117 56.4848 7.06058L56.5149 6.56149C55.8409 6.52089 55.1682 6.52588 54.4824 6.53087L54.486 7.03085ZM54.4842 7.03086H54.4842V6.53086H54.4842V7.03086ZM54.4842 7.03086H54.4842V6.53086H54.4842V7.03086ZM54.4842 7.03086H54.4842V6.53086H54.4842V7.03086ZM54.4842 7.03086H54.4842V6.53086H54.4842V7.03086ZM54.4842 7.03086H54.4842V6.53086H54.4842V7.03086ZM54.4842 7.03086H54.4842V6.53086H54.4842V7.03086ZM53.7777 7.03426C54.0175 7.03426 54.2536 7.03255 54.486 7.03085L54.4824 6.53087C54.2497 6.53256 54.0154 6.53426 53.7777 6.53426V7.03426ZM52.7777 7.03426H53.7777V6.53426H52.7777V7.03426ZM53.0277 10.4515V6.78426H52.5277V10.4515H53.0277ZM52.5277 10.4515V11.2009H53.0277V10.4515H52.5277Z" fill="white" mask="url(#path-2-inside-1)"/>
<path d="M1 19.5L69.5 4" stroke="#A8A8A8"/>
</svg>
