<svg width="142" height="23" viewBox="0 0 142 23" fill="none" xmlns="http://www.w3.org/2000/svg">
<path d="M130.463 0L133.053 7.9463H141.435L134.654 12.8574L137.244 20.8037L130.463 15.8926L123.681 20.8037L126.271 12.8574L119.49 7.9463H127.872L130.463 0Z" fill="#E2E2E2"/>
<path d="M100.288 0L102.878 7.9463H111.26L104.479 12.8574L107.069 20.8037L100.288 15.8926L93.5059 20.8037L96.0963 12.8574L89.3147 7.9463H97.6972L100.288 0Z" fill="#E2E2E2"/>
<path d="M70.1125 0L72.7028 7.9463H81.0853L74.3037 12.8574L76.894 20.8037L70.1125 15.8926L63.3309 20.8037L65.9212 12.8574L59.1396 7.9463H67.5221L70.1125 0Z" fill="#E2E2E2"/>
<path d="M41.7125 0L44.3029 7.9463H52.6854L45.9038 12.8574L48.4941 20.8037L41.7125 15.8926L34.931 20.8037L37.5213 12.8574L30.7397 7.9463H39.1222L41.7125 0Z" fill="#FF7931"/>
<path d="M11.5375 0L14.1278 7.9463H22.5103L15.7287 12.8574L18.3191 20.8037L11.5375 15.8926L4.75593 20.8037L7.34626 12.8574L0.564686 7.9463H8.94717L11.5375 0Z" fill="#FF7931"/>
</svg>
