<svg width="134" height="23" viewBox="0 0 134 23" fill="none" xmlns="http://www.w3.org/2000/svg">
<path opacity="0.6" fill-rule="evenodd" clip-rule="evenodd" d="M21.7901 1.00001C21.6501 1.00001 21.5201 1.03001 21.4001 1.09001L17.9501 2.92001C17.8101 3.02001 17.7401 3.12001 17.7401 3.22001V3.28001L17.8901 4.42001C17.9301 4.58001 18.0101 4.66001 18.1301 4.66001L18.2501 4.63001L21.4301 3.34001C21.4701 3.32001 21.5001 3.32001 21.5201 3.34001C21.5601 3.36001 21.5801 3.39001 21.5801 3.43001V18.732L0.921875 22.0062L1.07841 22.9938L21.5801 19.7445V21.7C21.5801 21.9 21.6801 22 21.8801 22H23.4101C23.6101 22 23.7101 21.9 23.7101 21.7V19.4069L29.7575 18.4485C29.1506 19.1921 28.7009 19.7359 28.4084 20.08C28.3084 20.18 28.2584 20.3 28.2584 20.44V21.7C28.2584 21.9 28.3584 22 28.5584 22H40.5284C40.7284 22 40.8284 21.9 40.8284 21.7V20.44C40.8284 20.24 40.7284 20.14 40.5284 20.14H31.1084C31.0084 20.14 30.9884 20.09 31.0484 19.99L31.7084 19.21C32.0628 18.7823 32.4025 18.3715 32.7277 17.9777L60.1283 13.635V16.72C60.1283 17.82 59.7783 18.71 59.0783 19.39C58.3783 20.05 57.4883 20.38 56.4083 20.38C55.3683 20.38 54.5183 20.06 53.8583 19.42C53.1983 18.78 52.8683 17.95 52.8683 16.93V16.69C52.8683 16.49 52.7683 16.39 52.5683 16.39H51.0383C50.8383 16.39 50.7383 16.49 50.7383 16.69V17.11C50.7383 18.63 51.2583 19.87 52.2983 20.83C53.3583 21.77 54.7283 22.24 56.4083 22.24C58.1483 22.24 59.5583 21.76 60.6383 20.8C61.7183 19.82 62.2583 18.51 62.2583 16.87V13.2974L66.9057 12.5608C66.8022 12.7287 66.7079 12.9051 66.6228 13.09C66.2028 14.03 65.9928 15.03 65.9928 16.09C65.9928 17.35 66.2728 18.48 66.8328 19.48C67.3128 20.38 68.0028 21.07 68.9028 21.55C69.8028 22.01 70.8528 22.24 72.0528 22.24C73.2128 22.24 74.2328 22.01 75.1128 21.55C75.9928 21.09 76.6728 20.45 77.1528 19.63C77.7328 18.67 78.0228 17.5 78.0228 16.12C78.0228 14.98 77.8328 14 77.4528 13.18C77.0952 12.3185 76.546 11.6419 75.8053 11.1503L84.5977 9.75682V21.7C84.5977 21.9 84.6977 22 84.8977 22H86.4277C86.6277 22 86.7277 21.9 86.7277 21.7V9.41924L101.602 7.06183V10.81C101.602 10.89 101.562 10.93 101.482 10.93H98.8719C98.6719 10.93 98.5719 11.03 98.5719 11.23V11.98C98.5719 12.18 98.6719 12.28 98.8719 12.28H101.482C101.562 12.28 101.602 12.32 101.602 12.4V15.13C101.602 15.21 101.562 15.25 101.482 15.25H98.8719C98.6719 15.25 98.5719 15.35 98.5719 15.55V16.06C98.5719 16.26 98.6719 16.36 98.8719 16.36H101.482C101.562 16.36 101.602 16.4 101.602 16.48V21.7C101.602 21.9 101.702 22 101.902 22H102.892C103.092 22 103.192 21.9 103.192 21.7V16.48C103.192 16.4 103.232 16.36 103.312 16.36H110.902C111.102 16.36 111.202 16.26 111.202 16.06V15.55C111.202 15.35 111.102 15.25 110.902 15.25H103.312C103.232 15.25 103.192 15.21 103.192 15.13V12.4C103.192 12.32 103.232 12.28 103.312 12.28H109.582C110.702 12.28 111.692 12.05 112.552 11.59C113.412 11.11 114.082 10.45 114.562 9.61001C115.062 8.75001 115.312 7.76001 115.312 6.64001C115.312 6.02402 115.242 5.45135 115.103 4.92201L133.578 1.99385L133.422 1.00618L114.753 3.96497C114.497 3.43191 114.154 2.95359 113.722 2.53001C112.682 1.47001 111.312 0.940013 109.612 0.940013H101.902C101.702 0.940013 101.602 1.04001 101.602 1.24001V6.04935L86.7277 8.40676V1.30001C86.7277 1.10001 86.6277 1.00001 86.4277 1.00001H84.8077C84.6677 1.00001 84.5377 1.03001 84.4177 1.09001L80.9677 2.92001C80.8277 3.02001 80.7577 3.12001 80.7577 3.22001V3.28001L80.9077 4.42001C80.9477 4.58001 81.0277 4.66001 81.1477 4.66001L81.2677 4.63001L84.4477 3.34001C84.4877 3.32001 84.5177 3.32001 84.5377 3.34001C84.5777 3.36001 84.5977 3.39001 84.5977 3.43001V8.74434L76.0701 10.0959C76.3864 9.82022 76.6473 9.52826 76.8528 9.22001C77.4528 8.32001 77.7528 7.32001 77.7528 6.22001C77.7528 5.12001 77.4628 4.10001 76.8828 3.16001C76.4028 2.38001 75.7528 1.78001 74.9328 1.36001C74.1128 0.920012 73.1528 0.700012 72.0528 0.700012C70.9928 0.700012 70.0328 0.920012 69.1728 1.36001C68.3328 1.78001 67.6728 2.38001 67.1928 3.16001C66.5928 4.08001 66.2928 5.10001 66.2928 6.22001C66.2928 7.32001 66.5928 8.30001 67.1928 9.16001C67.6128 9.80001 68.1528 10.31 68.8128 10.69C68.9128 10.75 68.9128 10.8 68.8128 10.84C68.5002 10.9963 68.214 11.177 67.9542 11.3822L62.2583 12.2849V7.51001C62.2583 6.43001 62.1383 5.49001 61.8983 4.69001C61.5183 3.47001 60.8283 2.52001 59.8283 1.84001C58.8483 1.14001 57.6383 0.790013 56.1983 0.790013C54.8383 0.790013 53.6883 1.11001 52.7483 1.75001C51.8283 2.39001 51.1583 3.29001 50.7383 4.45001C50.4383 5.23001 50.2883 6.23001 50.2883 7.45001C50.2883 8.89001 50.4983 10.03 50.9183 10.87C51.3583 11.89 51.9983 12.68 52.8383 13.24C53.085 13.4006 53.3481 13.5382 53.6277 13.6528L33.6877 16.8131C35.4202 14.7071 36.6504 13.186 37.3784 12.25C39.2584 9.85001 40.1984 7.80001 40.1984 6.10001C40.1984 5.08001 39.9484 4.17001 39.4484 3.37001C38.9484 2.55001 38.2384 1.91001 37.3184 1.45001C36.3984 0.990013 35.3384 0.760013 34.1384 0.760013C32.4384 0.760013 31.0284 1.23001 29.9084 2.17001C28.8084 3.11001 28.2384 4.35001 28.1984 5.89001V7.09001C28.1984 7.29001 28.2984 7.39001 28.4984 7.39001H30.0584C30.2584 7.39001 30.3584 7.29001 30.3584 7.09001V6.16001C30.3384 5.10001 30.6784 4.25001 31.3784 3.61001C32.0784 2.95001 32.9984 2.62001 34.1384 2.62001C35.2984 2.62001 36.2384 2.94001 36.9584 3.58001C37.6784 4.22001 38.0384 5.07001 38.0384 6.13001C38.0384 7.45001 37.0984 9.30001 35.2184 11.68L32.9984 14.44C32.1163 15.5371 31.3509 16.4859 30.7023 17.2863L23.7101 18.3945V1.30001C23.7101 1.10001 23.6101 1.00001 23.4101 1.00001H21.7901ZM59.6534 12.6978L60.1283 12.6225V12.34C60.1283 12.3 60.1083 12.28 60.0683 12.28C60.0283 12.26 59.9983 12.27 59.9783 12.31C59.8759 12.4473 59.7676 12.5765 59.6534 12.6978ZM103.192 6.80983V10.81C103.192 10.89 103.232 10.93 103.312 10.93H109.492C110.772 10.93 111.792 10.54 112.552 9.76001C113.332 8.98001 113.722 7.95001 113.722 6.67001C113.722 6.12555 113.653 5.6267 113.517 5.17345L103.192 6.80983ZM113.092 4.22828L103.192 5.79735V2.50001C103.192 2.42001 103.232 2.38001 103.312 2.38001H109.492C110.772 2.38001 111.792 2.77001 112.552 3.55001C112.76 3.75767 112.94 3.98376 113.092 4.22828ZM69.912 12.0844L72.8417 11.62C74.0602 11.8099 74.9173 12.4499 75.4128 13.54C75.7328 14.22 75.8928 15.03 75.8928 15.97C75.8928 17.11 75.6428 18.06 75.1428 18.82C74.5028 19.86 73.4728 20.38 72.0528 20.38C70.5928 20.38 69.5228 19.83 68.8428 18.73C68.4028 18.03 68.1828 17.12 68.1828 16C68.1828 14.92 68.3628 14.06 68.7228 13.42C69.0136 12.8384 69.41 12.3932 69.912 12.0844ZM58.5083 11.59C57.9083 12.01 57.1683 12.22 56.2883 12.22C55.4083 12.22 54.6683 12.01 54.0683 11.59C53.4683 11.15 53.0483 10.57 52.8083 9.85001C52.5483 9.27001 52.4183 8.47001 52.4183 7.45001C52.4183 6.49001 52.5283 5.73001 52.7483 5.17001C53.0083 4.35001 53.4483 3.73001 54.0683 3.31001C54.6883 2.87001 55.4283 2.65001 56.2883 2.65001C57.1883 2.65001 57.9483 2.88001 58.5683 3.34001C59.1883 3.80001 59.6183 4.41001 59.8583 5.17001C60.0383 5.77001 60.1283 6.50001 60.1283 7.36001C60.1283 8.40001 60.0183 9.21001 59.7983 9.79001C59.5583 10.55 59.1283 11.15 58.5083 11.59ZM68.3928 6.22001C68.3928 5.64001 68.5528 5.05001 68.8728 4.45001C69.1728 3.87001 69.5928 3.41001 70.1328 3.07001C70.6728 2.73001 71.2928 2.56001 71.9928 2.56001C72.7328 2.56001 73.3728 2.73001 73.9128 3.07001C74.4528 3.39001 74.8728 3.83001 75.1728 4.39001C75.4728 4.93001 75.6228 5.53001 75.6228 6.19001C75.6228 7.11001 75.4328 7.84001 75.0528 8.38001C74.7328 8.88001 74.3128 9.27001 73.7928 9.55001C73.2728 9.81001 72.6828 9.94001 72.0228 9.94001C71.3628 9.94001 70.7728 9.81001 70.2528 9.55001C69.7528 9.29001 69.3428 8.91001 69.0228 8.41001C68.6028 7.79001 68.3928 7.06001 68.3928 6.22001Z" fill="black"/>
</svg>
